<svg xmlns="http://www.w3.org/2000/svg" version="1.1" xmlns:xlink="http://www.w3.org/1999/xlink" xmlns:svgjs="http://svgjs.dev/svgjs" width="2000" height="1247" viewBox="0 0 2000 1247"><g transform="matrix(1,0,0,1,-1.2121212121212466,0.504858299595071)"><svg viewBox="0 0 396 247" data-background-color="#111111" preserveAspectRatio="xMidYMid meet" height="1247" width="2000" xmlns="http://www.w3.org/2000/svg" xmlns:xlink="http://www.w3.org/1999/xlink"><g id="tight-bounds" transform="matrix(1,0,0,1,0.2400000000000091,-0.09999999999999432)"><svg viewBox="0 0 395.52 247.2" height="247.2" width="395.52"><g><svg viewBox="0 0 395.52 247.2" height="247.2" width="395.52"><g transform="matrix(1,0,0,1,108.59809610550113,27.054309599999996)"><svg viewBox="0 0 178.32380778899773 193.0913808" height="193.0913808" width="178.32380778899773"><g><svg viewBox="0 0 178.32380778899773 193.0913808" height="193.0913808" width="178.32380778899773"><g><svg viewBox="0 0 178.32380778899773 193.0913808" height="193.0913808" width="178.32380778899773"><g><path d="M0 193.091v-193.091h178.324v193.091z" fill="#00ffff" stroke="transparent" stroke-width="0" rx="0%" data-fill-palette-color="tertiary"></path><path d="M4.509 188.582v-184.073h169.306v184.073z" fill="#111111" stroke="transparent" stroke-width="0" rx="0%" data-fill-palette-color="quaternary"></path><path d="M13.527 179.564v-166.037h151.27v166.037z" fill="#00ffff" stroke="transparent" stroke-width="0" data-fill-palette-color="tertiary"></path></g><g transform="matrix(1,0,0,1,27.05430959999999,27.054309599999996)" id="textblocktransform"><svg viewBox="0 0 124.21518858899775 138.9827616" height="138.9827616" width="124.21518858899775" id="textblock"><g><svg viewBox="0 0 124.21518858899775 138.9827616" height="138.9827616" width="124.21518858899775"><g transform="matrix(1,0,0,1,0,0)"><svg width="124.21518858899775" viewBox="2.86 -32.4 28.95 32.4" height="138.9827616" data-palette-color="#111111"><path d="M2.86 0L2.86-32.4 13.65-32.4 13.65-17.92 23.61-17.92 23.61-11.55 13.65-11.55 13.65 0 2.86 0ZM21.02-25.93L15.36-25.93 15.36-32.4 31.81-32.4 31.81-21.66 21.02-21.66 21.02-25.93Z" opacity="1" transform="matrix(1,0,0,1,0,0)" fill="#111111" class="wordmark-text-0" data-fill-palette-color="quaternary" id="text-0"></path></svg></g></svg></g></svg></g></svg></g><g></g></svg></g></svg></g></svg></g><defs></defs></svg><rect width="395.52" height="247.2" fill="none" stroke="none" visibility="hidden"></rect></g></svg></g></svg>